<svg width="27" height="27" viewBox="0 0 27 27" fill="none" xmlns="http://www.w3.org/2000/svg">
<g clip-path="url(#clip0_2_15)">
<path d="M8.44313 27C6.4066 26.9987 4.43926 26.2608 2.90414 24.9226C1.36902 23.5844 0.369721 21.7361 0.0906386 19.7188C-0.188444 17.7014 0.271525 15.6512 1.38567 13.9465C2.49981 12.2418 4.19294 10.9975 6.15263 10.4434C7.57702 10.0355 9.08471 10.0168 10.5188 10.3894L19.4153 1.49512C19.8875 1.01956 20.4496 0.642517 21.0687 0.385861C21.6878 0.129206 22.3518 -0.00195405 23.022 -9.20194e-06C24.0768 0.000884534 25.0881 0.420281 25.8339 1.16611C26.5797 1.91193 26.9991 2.92323 27 3.97799C27.0017 4.64825 26.8706 5.31222 26.6142 5.93149C26.3577 6.55076 25.9811 7.11305 25.506 7.58587L24.75 8.34187C24.327 8.76198 23.7554 8.99845 23.1593 8.99999H21.375V10.125C21.375 10.7217 21.138 11.294 20.716 11.716C20.294 12.1379 19.7217 12.375 19.125 12.375H18V14.1592C18.0008 14.4548 17.9429 14.7476 17.8298 15.0207C17.7166 15.2937 17.5504 15.5416 17.3408 15.75L16.6095 16.4812C16.9841 17.9146 16.9658 19.4224 16.5566 20.8462C16.0962 22.4685 15.162 23.9164 13.8737 25.0045C12.5853 26.0926 11.0016 26.7713 9.32513 26.9539C9.03211 26.9843 8.73773 26.9997 8.44313 27ZM8.44313 12.375C7.2913 12.3739 6.16202 12.6943 5.18242 13.3002C4.20281 13.9061 3.41177 14.7733 2.89835 15.8044C2.38492 16.8355 2.16949 17.9894 2.2763 19.1363C2.38312 20.2831 2.80793 21.3774 3.50294 22.296C4.19794 23.2145 5.13554 23.9208 6.21018 24.3353C7.28483 24.7499 8.45385 24.8563 9.58567 24.6425C10.7175 24.4287 11.7672 23.9032 12.6165 23.1252C13.4659 22.3471 14.0812 21.3475 14.3933 20.2387C14.7443 19.0198 14.7049 17.7216 14.2808 16.5262C14.2115 16.3266 14.1999 16.1115 14.2473 15.9056C14.2946 15.6996 14.399 15.5112 14.5485 15.3619L15.75 14.1592V12.375C15.75 11.7783 15.9871 11.206 16.409 10.784C16.831 10.362 17.4033 10.125 18 10.125H19.125V8.99999C19.125 8.40325 19.3621 7.83096 19.784 7.409C20.206 6.98704 20.7783 6.74999 21.375 6.74999H23.1593L23.9153 5.99399C24.1807 5.72979 24.3912 5.41559 24.5344 5.06955C24.6777 4.72352 24.751 4.35251 24.75 3.97799C24.7497 3.51998 24.5677 3.0808 24.244 2.75684C23.9202 2.43287 23.4811 2.25059 23.0231 2.24999C22.6483 2.24907 22.2771 2.32247 21.9309 2.46595C21.5846 2.60942 21.2703 2.82012 21.006 3.08587L11.6336 12.4571C11.4841 12.6066 11.2954 12.7109 11.0892 12.7581C10.8831 12.8052 10.6678 12.7933 10.4681 12.7237C9.81571 12.494 9.12918 12.3761 8.43751 12.375H8.44313ZM5.62501 20.25C5.62501 20.4725 5.69099 20.69 5.8146 20.875C5.93822 21.06 6.11392 21.2042 6.31949 21.2894C6.52505 21.3745 6.75125 21.3968 6.96948 21.3534C7.18771 21.31 7.38817 21.2028 7.5455 21.0455C7.70283 20.8882 7.80998 20.6877 7.85339 20.4695C7.8968 20.2512 7.87452 20.025 7.78937 19.8195C7.70422 19.6139 7.56003 19.4382 7.37502 19.3146C7.19002 19.191 6.97251 19.125 6.75001 19.125C6.45164 19.125 6.16549 19.2435 5.95451 19.4545C5.74353 19.6655 5.62501 19.9516 5.62501 20.25Z" fill="#CDCDCD"/>
</g>
<defs>
<clipPath id="clip0_2_15">
<rect width="27" height="27" fill="white"/>
</clipPath>
</defs>
</svg>
